# Blender v3.4.1 OBJ File: ''
# www.blender.org
mtllib block.mtl
o Cube.001
v -1.000000 1.000000 -1.000000
v 1.000000 1.000000 1.000000
v 1.000000 1.000000 -1.000000
v -1.000000 -1.000000 1.000000
v 1.000000 -1.000000 1.000000
v -1.000000 1.000000 1.000000
v -1.000000 -1.000000 -1.000000
v 1.000000 -1.000000 -1.000000
vt 1.000000 1.000000
vt 0.000000 0.000000
vt 1.000000 0.000000
vt 0.999820 0.000675
vt 0.000568 1.000488
vt 0.000159 0.000537
vt -0.000044 0.000059
vt 1.000071 0.999913
vt 0.000157 1.000130
vt 1.000161 0.999839
vt -0.000007 0.000017
vt 0.999839 -0.000161
vt 1.000000 1.000000
vt 0.000000 0.000000
vt 1.000000 0.000000
vt 0.000205 1.000123
vt 0.999677 0.000320
vt 0.999917 0.999981
vt 0.000000 1.000000
vt 0.999709 1.000455
vt 0.999941 0.000344
vt 0.000001 1.000000
vt 0.000000 1.000000
vt 0.000031 0.000090
vn 0.0000 1.0000 0.0000
vn 0.0000 -0.0000 1.0000
vn -1.0000 -0.0000 0.0000
vn 0.0000 -1.0000 -0.0000
vn 1.0000 -0.0000 0.0000
vn 0.0000 0.0000 -1.0000
usemtl Material.001
s 1
f 1/1/1 2/2/1 3/3/1
f 2/4/2 4/5/2 5/6/2
f 6/7/3 7/8/3 4/9/3
f 8/10/4 4/11/4 7/12/4
f 3/13/5 5/14/5 8/15/5
f 1/16/6 8/17/6 7/18/6
f 1/1/1 6/19/1 2/2/1
f 2/4/2 6/20/2 4/5/2
f 6/7/3 1/21/3 7/8/3
f 8/10/4 5/22/4 4/11/4
f 3/13/5 2/23/5 5/14/5
f 1/16/6 3/24/6 8/17/6
