# Blender v3.4.1 OBJ File: ''
# www.blender.org
mtllib Circle.mtl
o 円錐
v -0.000000 0.000000 -1.000000
v 0.195090 0.000000 -0.980785
v 0.382683 0.000000 -0.923880
v 0.555570 0.000000 -0.831470
v 0.707107 0.000000 -0.707107
v 0.831470 0.000000 -0.555570
v 0.923880 0.000000 -0.382683
v 0.980785 0.000000 -0.195090
v 1.000000 0.000000 0.000000
v 0.980785 0.000000 0.195090
v 0.923880 0.000000 0.382683
v 0.831470 0.000000 0.555570
v 0.707107 0.000000 0.707107
v 0.555570 0.000000 0.831470
v 0.382683 0.000000 0.923880
v 0.195090 0.000000 0.980785
v -0.000000 0.000000 1.000000
v -0.195090 0.000000 0.980785
v -0.382683 0.000000 0.923880
v -0.555570 0.000000 0.831470
v -0.707107 0.000000 0.707107
v -0.831470 0.000000 0.555570
v -0.923880 0.000000 0.382683
v -0.980785 0.000000 0.195090
v -1.000000 0.000000 0.000000
v -0.980785 0.000000 -0.195090
v -0.923880 0.000000 -0.382683
v -0.831470 0.000000 -0.555570
v -0.707107 0.000000 -0.707107
v -0.555570 0.000000 -0.831470
v -0.382683 0.000000 -0.923880
v -0.195090 0.000000 -0.980785
vt 0.263161 0.056906
vt 0.943094 0.263161
vt 0.736839 0.943094
vt 0.645845 0.980785
vt 0.549246 1.000000
vt 0.450754 1.000000
vt 0.354155 0.980785
vt 0.263161 0.943094
vt 0.181269 0.888375
vt 0.111625 0.818731
vt 0.056906 0.736839
vt 0.019215 0.645845
vt 0.000000 0.549246
vt 0.000000 0.450754
vt 0.019215 0.354155
vt 0.056906 0.263161
vt 0.111625 0.181269
vt 0.181269 0.111625
vt 0.354155 0.019215
vt 0.450754 0.000000
vt 0.549246 0.000000
vt 0.645845 0.019215
vt 0.736839 0.056906
vt 0.818731 0.111625
vt 0.888375 0.181269
vt 0.980785 0.354155
vt 1.000000 0.450754
vt 1.000000 0.549246
vt 0.980785 0.645845
vt 0.943094 0.736839
vt 0.888375 0.818731
vt 0.818731 0.888375
vn 0.0000 -1.0000 0.0000
usemtl マテリアル
s off
f 16/1/1 24/2/1 32/3/1
f 32/3/1 1/4/1 2/5/1
f 2/5/1 3/6/1 32/3/1
f 3/6/1 4/7/1 32/3/1
f 4/7/1 5/8/1 6/9/1
f 6/9/1 7/10/1 8/11/1
f 8/11/1 9/12/1 10/13/1
f 10/13/1 11/14/1 12/15/1
f 12/15/1 13/16/1 14/17/1
f 14/17/1 15/18/1 16/1/1
f 16/1/1 17/19/1 18/20/1
f 18/20/1 19/21/1 20/22/1
f 20/22/1 21/23/1 22/24/1
f 22/24/1 23/25/1 24/2/1
f 24/2/1 25/26/1 26/27/1
f 26/27/1 27/28/1 28/29/1
f 28/29/1 29/30/1 30/31/1
f 30/31/1 31/32/1 32/3/1
f 4/7/1 6/9/1 8/11/1
f 8/11/1 10/13/1 12/15/1
f 12/15/1 14/17/1 16/1/1
f 16/1/1 18/20/1 20/22/1
f 20/22/1 22/24/1 24/2/1
f 24/2/1 26/27/1 32/3/1
f 26/27/1 28/29/1 32/3/1
f 28/29/1 30/31/1 32/3/1
f 32/3/1 4/7/1 8/11/1
f 8/11/1 12/15/1 16/1/1
f 16/1/1 20/22/1 24/2/1
f 32/3/1 8/11/1 16/1/1
