# Blender 3.3.1
# www.blender.org
mtllib cube2.mtl
o Cube
v 0.700000 0.700000 -1.000000
v 0.700000 1.000000 -0.700000
v 1.000000 0.700000 -0.700000
v 0.700000 0.849803 -0.959921
v 0.849803 0.700000 -0.959921
v 0.843463 0.843463 -0.920990
v 0.849803 0.959921 -0.700000
v 0.700000 0.959921 -0.849803
v 0.843463 0.920990 -0.843463
v 0.959921 0.700000 -0.849803
v 0.959921 0.849803 -0.700000
v 0.920990 0.843463 -0.843463
v 0.700000 -1.000000 -0.700000
v 0.700000 -0.700000 -1.000000
v 1.000000 -0.700000 -0.700000
v 0.700000 -0.959921 -0.849803
v 0.849803 -0.959921 -0.700000
v 0.843463 -0.920990 -0.843463
v 0.849803 -0.700000 -0.959921
v 0.700000 -0.849803 -0.959921
v 0.843463 -0.843463 -0.920990
v 0.959921 -0.849803 -0.700000
v 0.959921 -0.700000 -0.849803
v 0.920990 -0.843463 -0.843463
v 1.000000 0.700000 0.700000
v 0.700000 1.000000 0.700000
v 0.700000 0.700000 1.000000
v 0.959921 0.849803 0.700000
v 0.959921 0.700000 0.849803
v 0.920990 0.843463 0.843463
v 0.700000 0.959921 0.849803
v 0.849803 0.959921 0.700000
v 0.843463 0.920990 0.843463
v 0.849803 0.700000 0.959921
v 0.700000 0.849803 0.959921
v 0.843463 0.843463 0.920990
v 1.000000 -0.700000 0.700000
v 0.700000 -0.700000 1.000000
v 0.700000 -1.000000 0.700000
v 0.959921 -0.700000 0.849803
v 0.959921 -0.849803 0.700000
v 0.920990 -0.843463 0.843463
v 0.700000 -0.849803 0.959921
v 0.849803 -0.700000 0.959921
v 0.843463 -0.843463 0.920990
v 0.849803 -0.959921 0.700000
v 0.700000 -0.959921 0.849803
v 0.843463 -0.920990 0.843463
v -0.700000 0.700000 -1.000000
v -1.000000 0.700000 -0.700000
v -0.700000 1.000000 -0.700000
v -0.849803 0.700000 -0.959921
v -0.700000 0.849803 -0.959921
v -0.843463 0.843463 -0.920990
v -0.959921 0.849803 -0.700000
v -0.959921 0.700000 -0.849803
v -0.920990 0.843463 -0.843463
v -0.700000 0.959921 -0.849803
v -0.849803 0.959921 -0.700000
v -0.843463 0.920990 -0.843463
v -1.000000 -0.700000 -0.700000
v -0.700000 -0.700000 -1.000000
v -0.700000 -1.000000 -0.700000
v -0.959921 -0.700000 -0.849803
v -0.959921 -0.849803 -0.700000
v -0.920990 -0.843463 -0.843463
v -0.700000 -0.849803 -0.959921
v -0.849803 -0.700000 -0.959921
v -0.843463 -0.843463 -0.920990
v -0.849803 -0.959921 -0.700000
v -0.700000 -0.959921 -0.849803
v -0.843463 -0.920990 -0.843463
v -1.000000 0.700000 0.700000
v -0.700000 0.700000 1.000000
v -0.700000 1.000000 0.700000
v -0.959921 0.700000 0.849803
v -0.959921 0.849803 0.700000
v -0.920990 0.843463 0.843463
v -0.700000 0.849803 0.959921
v -0.849803 0.700000 0.959921
v -0.843463 0.843463 0.920990
v -0.849803 0.959921 0.700000
v -0.700000 0.959921 0.849803
v -0.843463 0.920990 0.843463
v -0.700000 -1.000000 0.700000
v -0.700000 -0.700000 1.000000
v -1.000000 -0.700000 0.700000
v -0.700000 -0.959921 0.849803
v -0.849803 -0.959921 0.700000
v -0.843463 -0.920990 0.843463
v -0.849803 -0.700000 0.959921
v -0.700000 -0.849803 0.959921
v -0.843463 -0.843463 0.920990
v -0.959921 -0.849803 0.700000
v -0.959921 -0.700000 0.849803
v -0.920990 -0.843463 0.843463
vn -0.0000 -1.0000 -0.0000
vn -1.0000 -0.0000 -0.0000
vn -0.0000 -0.0000 1.0000
vn -0.0000 1.0000 -0.0000
vn 1.0000 -0.0000 -0.0000
vn 0.2502 0.2502 -0.9353
vn 0.2178 0.6901 -0.6901
vn 0.2502 0.9353 -0.2502
vn 0.6901 0.6901 -0.2178
vn 0.9353 0.2502 -0.2502
vn 0.6901 0.2178 -0.6901
vn 0.5774 0.5774 -0.5774
vn 0.2502 -0.9353 -0.2502
vn 0.2178 -0.6901 -0.6901
vn 0.2502 -0.2502 -0.9353
vn 0.6901 -0.2178 -0.6901
vn 0.9353 -0.2502 -0.2502
vn 0.6901 -0.6901 -0.2178
vn 0.5774 -0.5774 -0.5774
vn 0.9353 0.2502 0.2502
vn 0.6901 0.6901 0.2178
vn 0.2502 0.9353 0.2502
vn 0.2178 0.6901 0.6901
vn 0.2502 0.2502 0.9353
vn 0.6901 0.2178 0.6901
vn 0.5774 0.5774 0.5774
vn 0.9353 -0.2502 0.2502
vn 0.6901 -0.2178 0.6901
vn 0.2502 -0.2502 0.9353
vn 0.2178 -0.6901 0.6901
vn 0.2502 -0.9353 0.2502
vn 0.6901 -0.6901 0.2178
vn 0.5774 -0.5774 0.5774
vn -0.2502 0.2502 -0.9353
vn -0.6901 0.2178 -0.6901
vn -0.9353 0.2502 -0.2502
vn -0.6901 0.6901 -0.2178
vn -0.2502 0.9353 -0.2502
vn -0.2178 0.6901 -0.6901
vn -0.5774 0.5774 -0.5774
vn -0.9353 -0.2502 -0.2502
vn -0.6901 -0.2178 -0.6901
vn -0.2502 -0.2502 -0.9353
vn -0.2178 -0.6901 -0.6901
vn -0.2502 -0.9353 -0.2502
vn -0.6901 -0.6901 -0.2178
vn -0.5774 -0.5774 -0.5774
vn -0.9353 0.2502 0.2502
vn -0.6901 0.2178 0.6901
vn -0.2502 0.2502 0.9353
vn -0.2178 0.6901 0.6901
vn -0.2502 0.9353 0.2502
vn -0.6901 0.6901 0.2178
vn -0.5774 0.5774 0.5774
vn -0.2502 -0.9353 0.2502
vn -0.2178 -0.6901 0.6901
vn -0.2502 -0.2502 0.9353
vn -0.6901 -0.2178 0.6901
vn -0.9353 -0.2502 0.2502
vn -0.6901 -0.6901 0.2178
vn -0.5774 -0.5774 0.5774
vn -0.2585 -0.9660 -0.0000
vn -0.7071 -0.7071 -0.0000
vn -0.9660 -0.2585 -0.0000
vn -0.0000 -0.9660 -0.2585
vn -0.0000 -0.7071 -0.7071
vn -0.0000 -0.2585 -0.9660
vn 0.9660 -0.0000 -0.2585
vn 0.7071 -0.0000 -0.7071
vn 0.2585 -0.0000 -0.9660
vn -0.2585 -0.0000 0.9660
vn -0.7071 -0.0000 0.7071
vn -0.9660 -0.0000 0.2585
vn 0.2585 -0.0000 0.9660
vn 0.7071 -0.0000 0.7071
vn 0.9660 -0.0000 0.2585
vn -0.2585 -0.0000 -0.9660
vn -0.7071 -0.0000 -0.7071
vn -0.9660 -0.0000 -0.2585
vn -0.0000 0.9660 0.2585
vn -0.0000 0.7071 0.7071
vn -0.0000 0.2585 0.9660
vn 0.2585 0.9660 -0.0000
vn 0.7071 0.7071 -0.0000
vn 0.9660 0.2585 -0.0000
vn -0.0000 -0.9660 0.2585
vn -0.0000 -0.7071 0.7071
vn -0.0000 -0.2585 0.9660
vn -0.2585 0.9660 -0.0000
vn -0.7071 0.7071 -0.0000
vn -0.9660 0.2585 -0.0000
vn -0.0000 0.9660 -0.2585
vn -0.0000 0.7071 -0.7071
vn -0.0000 0.2585 -0.9660
vn 0.2585 -0.9660 -0.0000
vn 0.7071 -0.7071 -0.0000
vn 0.9660 -0.2585 -0.0000
vn -0.0000 -0.0000 -1.0000
vn 0.2635 0.2635 -0.9280
vn 0.2635 0.9280 -0.2635
vn 0.9280 0.2635 -0.2635
vn 0.2635 -0.9280 -0.2635
vn 0.2635 -0.2635 -0.9280
vn 0.9280 -0.2635 -0.2635
vn 0.9280 0.2635 0.2635
vn 0.2635 0.9280 0.2635
vn 0.2635 0.2635 0.9280
vn 0.9280 -0.2635 0.2635
vn 0.2635 -0.2635 0.9280
vn 0.2635 -0.9280 0.2635
vn -0.2635 0.2635 -0.9280
vn -0.9280 0.2635 -0.2635
vn -0.2635 0.9280 -0.2635
vn -0.9280 -0.2635 -0.2635
vn -0.2635 -0.2635 -0.9280
vn -0.2635 -0.9280 -0.2635
vn -0.9280 0.2635 0.2635
vn -0.2635 0.2635 0.9280
vn -0.2635 0.9280 0.2635
vn -0.2635 -0.9280 0.2635
vn -0.2635 -0.2635 0.9280
vn -0.9280 -0.2635 0.2635
vt 0.587500 0.462500
vt 0.662500 0.537500
vt 0.587500 0.537500
vt 0.606225 0.462500
vt 0.587500 0.481225
vt 0.605433 0.480433
vt 0.643775 0.537500
vt 0.662500 0.500000
vt 0.625000 0.462500
vt 0.625000 0.480433
vt 0.644567 0.500000
vt 0.587500 0.518775
vt 0.606225 0.537500
vt 0.605433 0.490124
vt 0.605433 0.519567
vt 0.337500 0.537500
vt 0.412500 0.462500
vt 0.412500 0.537500
vt 0.337500 0.518775
vt 0.356225 0.537500
vt 0.355433 0.519567
vt 0.412500 0.481225
vt 0.375000 0.462500
vt 0.337500 0.500000
vt 0.355433 0.500000
vt 0.375000 0.480433
vt 0.393775 0.537500
vt 0.412500 0.518775
vt 0.365124 0.519567
vt 0.394567 0.519567
vt 0.587500 0.712500
vt 0.662500 0.712500
vt 0.587500 0.787500
vt 0.606225 0.712500
vt 0.587500 0.731225
vt 0.605433 0.759876
vt 0.605433 0.730433
vt 0.625000 0.787500
vt 0.662500 0.750000
vt 0.643775 0.712500
vt 0.644567 0.750000
vt 0.625000 0.769567
vt 0.587500 0.768775
vt 0.606225 0.787500
vt 0.605433 0.769567
vt 0.412500 0.712500
vt 0.412500 0.787500
vt 0.337500 0.712500
vt 0.412500 0.731225
vt 0.393775 0.712500
vt 0.365124 0.730433
vt 0.394567 0.730433
vt 0.337500 0.750000
vt 0.375000 0.787500
vt 0.412500 0.768775
vt 0.375000 0.769567
vt 0.355433 0.750000
vt 0.356225 0.712500
vt 0.337500 0.731225
vt 0.355433 0.730433
vt 0.587500 0.287500
vt 0.587500 0.212500
vt 0.837500 0.537500
vt 0.587500 0.268775
vt 0.606225 0.287500
vt 0.605433 0.240124
vt 0.605433 0.269567
vt 0.606225 0.212500
vt 0.587500 0.231225
vt 0.605433 0.230433
vt 0.625000 0.287500
vt 0.837500 0.500000
vt 0.875000 0.537500
vt 0.625000 0.212500
vt 0.625000 0.230433
vt 0.875000 0.519567
vt 0.625000 0.250000
vt 0.412500 0.212500
vt 0.412500 0.287500
vt 0.162500 0.537500
vt 0.412500 0.231225
vt 0.375000 0.212500
vt 0.125000 0.537500
vt 0.375000 0.230433
vt 0.125000 0.519567
vt 0.162500 0.500000
vt 0.375000 0.287500
vt 0.412500 0.268775
vt 0.375000 0.269567
vt 0.144567 0.500000
vt 0.143775 0.537500
vt 0.162500 0.518775
vt 0.144567 0.519567
vt 0.587500 0.037500
vt 0.587500 0.962500
vt 0.837500 0.712500
vt 0.587500 0.018775
vt 0.606225 0.037500
vt 0.605433 0.019567
vt 0.606225 0.962500
vt 0.587500 1.000000
vt 0.587500 0.000000
vt 0.605433 0.000000
vt 0.605433 1.000000
vt 0.625000 0.037500
vt 0.875000 0.712500
vt 0.837500 0.750000
vt 0.625000 0.962500
vt 0.625000 1.000000
vt 0.875000 0.730433
vt 0.625000 0.019567
vt 0.162500 0.712500
vt 0.412500 0.962500
vt 0.412500 0.037500
vt 0.162500 0.731225
vt 0.143775 0.712500
vt 0.144567 0.730433
vt 0.412500 0.000000
vt 0.412500 1.000000
vt 0.375000 0.962500
vt 0.162500 0.750000
vt 0.144567 0.750000
vt 0.375000 0.980433
vt 0.375000 0.000000
vt 0.125000 0.712500
vt 0.375000 0.037500
vt 0.412500 0.018775
vt 0.375000 0.019567
vt 0.125000 0.730433
s 0
usemtl Material
f 13/16/1 85/112/1 63/80/1
f 73/94/2 61/78/2 87/114/2
f 27/33/3 86/113/3 38/47/3
f 51/63/4 26/32/4 2/2/4
f 3/3/5 37/46/5 15/18/5
f 4/4/6 5/5/6 1/1/6
f 8/9/7 6/6/7 4/4/7
f 7/7/8 8/8/8 2/2/8
f 11/13/9 9/11/9 7/7/9
f 10/12/10 11/13/10 3/3/10
f 5/5/11 12/15/11 10/12/11
f 6/6/12 9/10/12 12/14/12
f 16/19/13 17/20/13 13/16/13
f 20/24/14 18/21/14 16/19/14
f 19/22/15 20/23/15 14/17/15
f 23/28/16 21/26/16 19/22/16
f 22/27/17 23/28/17 15/18/17
f 17/20/18 24/30/18 22/27/18
f 18/21/19 21/25/19 24/29/19
f 28/34/20 29/35/20 25/31/20
f 32/40/21 30/37/21 28/34/21
f 31/39/22 32/40/22 26/32/22
f 35/44/23 33/42/23 31/38/23
f 34/43/24 35/44/24 27/33/24
f 29/35/25 36/45/25 34/43/25
f 30/36/26 33/42/26 36/45/26
f 40/49/27 41/50/27 37/46/27
f 44/55/28 42/52/28 40/49/28
f 43/54/29 44/55/29 38/47/29
f 47/59/30 45/57/30 43/53/30
f 46/58/31 47/59/31 39/48/31
f 41/50/32 48/60/32 46/58/32
f 42/51/33 45/57/33 48/60/33
f 52/64/34 53/65/34 49/61/34
f 56/69/35 54/67/35 52/64/35
f 55/68/36 56/69/36 50/62/36
f 59/74/37 57/70/37 55/68/37
f 58/72/38 59/73/38 51/63/38
f 53/65/39 60/77/39 58/71/39
f 54/66/40 57/70/40 60/75/40
f 64/81/41 65/82/41 61/78/41
f 68/88/42 66/84/42 64/81/42
f 67/87/43 68/88/43 62/79/43
f 71/92/44 69/90/44 67/86/44
f 70/91/45 71/92/45 63/80/45
f 65/83/46 72/93/46 70/91/46
f 66/85/47 69/90/47 72/93/47
f 76/97/48 77/98/48 73/94/48
f 80/102/49 78/99/49 76/97/49
f 79/100/50 80/101/50 74/95/50
f 83/108/51 81/104/51 79/100/51
f 82/106/52 83/107/52 75/96/52
f 77/98/53 84/111/53 82/105/53
f 78/99/54 81/103/54 84/111/54
f 88/115/55 89/116/55 85/112/55
f 92/121/56 90/117/56 88/115/56
f 91/119/57 92/120/57 86/113/57
f 95/127/58 93/124/58 91/118/58
f 94/126/59 95/127/59 87/114/59
f 89/116/60 96/129/60 94/125/60
f 90/117/61 93/122/61 96/129/61
f 85/112/62 70/91/62 63/80/62
f 89/116/63 65/83/63 70/91/63
f 94/126/64 61/78/64 65/82/64
f 63/80/65 16/19/65 13/16/65
f 71/92/66 20/24/66 16/19/66
f 67/87/67 14/17/67 20/23/67
f 15/18/68 10/12/68 3/3/68
f 23/28/69 5/5/69 10/12/69
f 19/22/70 1/1/70 5/5/70
f 74/95/71 91/119/71 86/113/71
f 80/102/72 95/127/72 91/118/72
f 76/97/73 87/114/73 95/127/73
f 38/47/74 34/43/74 27/33/74
f 44/55/75 29/35/75 34/43/75
f 40/49/76 25/31/76 29/35/76
f 62/79/77 52/64/77 49/61/77
f 68/88/78 56/69/78 52/64/78
f 64/81/79 50/62/79 56/69/79
f 75/96/80 31/39/80 26/32/80
f 83/108/81 35/44/81 31/38/81
f 79/100/82 27/33/82 35/44/82
f 26/32/83 7/7/83 2/2/83
f 32/40/84 11/13/84 7/7/84
f 28/34/85 3/3/85 11/13/85
f 39/48/86 88/115/86 85/112/86
f 47/59/87 92/121/87 88/115/87
f 43/54/88 86/113/88 92/120/88
f 51/63/89 82/106/89 75/96/89
f 59/74/90 77/98/90 82/105/90
f 55/68/91 73/94/91 77/98/91
f 2/2/92 58/72/92 51/63/92
f 8/9/93 53/65/93 58/71/93
f 4/4/94 49/61/94 53/65/94
f 13/16/95 46/58/95 39/48/95
f 17/20/96 41/50/96 46/58/96
f 22/27/97 37/46/97 41/50/97
f 49/61/98 14/17/98 62/79/98
f 13/16/1 39/48/1 85/112/1
f 73/94/2 50/62/2 61/78/2
f 27/33/3 74/95/3 86/113/3
f 51/63/4 75/96/4 26/32/4
f 3/3/5 25/31/5 37/46/5
f 4/4/99 6/6/99 5/5/99
f 8/9/7 9/10/7 6/6/7
f 7/7/100 9/11/100 8/8/100
f 11/13/9 12/15/9 9/11/9
f 10/12/101 12/15/101 11/13/101
f 5/5/11 6/6/11 12/15/11
f 16/19/102 18/21/102 17/20/102
f 20/24/14 21/25/14 18/21/14
f 19/22/103 21/26/103 20/23/103
f 23/28/16 24/30/16 21/26/16
f 22/27/104 24/30/104 23/28/104
f 17/20/18 18/21/18 24/30/18
f 28/34/105 30/37/105 29/35/105
f 32/40/21 33/41/21 30/37/21
f 31/39/106 33/41/106 32/40/106
f 35/44/23 36/45/23 33/42/23
f 34/43/107 36/45/107 35/44/107
f 29/35/25 30/37/25 36/45/25
f 40/49/108 42/52/108 41/50/108
f 44/55/28 45/56/28 42/52/28
f 43/54/109 45/56/109 44/55/109
f 47/59/30 48/60/30 45/57/30
f 46/58/110 48/60/110 47/59/110
f 41/50/32 42/52/32 48/60/32
f 52/64/111 54/67/111 53/65/111
f 56/69/35 57/70/35 54/67/35
f 55/68/112 57/70/112 56/69/112
f 59/74/37 60/75/37 57/70/37
f 58/72/113 60/76/113 59/73/113
f 53/65/39 54/67/39 60/77/39
f 64/81/114 66/84/114 65/82/114
f 68/88/42 69/89/42 66/84/42
f 67/87/115 69/89/115 68/88/115
f 71/92/44 72/93/44 69/90/44
f 70/91/116 72/93/116 71/92/116
f 65/83/46 66/85/46 72/93/46
f 76/97/117 78/99/117 77/98/117
f 80/102/49 81/103/49 78/99/49
f 79/100/118 81/104/118 80/101/118
f 83/108/51 84/109/51 81/104/51
f 82/106/119 84/110/119 83/107/119
f 77/98/53 78/99/53 84/111/53
f 88/115/120 90/117/120 89/116/120
f 92/121/56 93/122/56 90/117/56
f 91/119/121 93/123/121 92/120/121
f 95/127/58 96/128/58 93/124/58
f 94/126/122 96/128/122 95/127/122
f 89/116/60 90/117/60 96/129/60
f 85/112/62 89/116/62 70/91/62
f 89/116/63 94/125/63 65/83/63
f 94/126/64 87/114/64 61/78/64
f 63/80/65 71/92/65 16/19/65
f 71/92/66 67/86/66 20/24/66
f 67/87/67 62/79/67 14/17/67
f 15/18/68 23/28/68 10/12/68
f 23/28/69 19/22/69 5/5/69
f 19/22/70 14/17/70 1/1/70
f 74/95/71 80/101/71 91/119/71
f 80/102/72 76/97/72 95/127/72
f 76/97/73 73/94/73 87/114/73
f 38/47/74 44/55/74 34/43/74
f 44/55/75 40/49/75 29/35/75
f 40/49/76 37/46/76 25/31/76
f 62/79/77 68/88/77 52/64/77
f 68/88/78 64/81/78 56/69/78
f 64/81/79 61/78/79 50/62/79
f 75/96/80 83/107/80 31/39/80
f 83/108/81 79/100/81 35/44/81
f 79/100/82 74/95/82 27/33/82
f 26/32/83 32/40/83 7/7/83
f 32/40/84 28/34/84 11/13/84
f 28/34/85 25/31/85 3/3/85
f 39/48/86 47/59/86 88/115/86
f 47/59/87 43/53/87 92/121/87
f 43/54/88 38/47/88 86/113/88
f 51/63/89 59/73/89 82/106/89
f 59/74/90 55/68/90 77/98/90
f 55/68/91 50/62/91 73/94/91
f 2/2/92 8/8/92 58/72/92
f 8/9/93 4/4/93 53/65/93
f 4/4/94 1/1/94 49/61/94
f 13/16/95 17/20/95 46/58/95
f 17/20/96 22/27/96 41/50/96
f 22/27/97 15/18/97 37/46/97
f 49/61/98 1/1/98 14/17/98
