# Blender v3.4.1 OBJ File: ''
# www.blender.org
mtllib particle.mtl
o トーラス.001
v 1.130000 0.000000 0.000000
v 1.116603 0.050000 0.000000
v 1.080000 0.086603 0.000000
v 1.030000 0.100000 0.000000
v 0.980000 0.086603 0.000000
v 0.943398 0.050000 0.000000
v 0.930000 0.000000 0.000000
v 0.943398 -0.050000 0.000000
v 0.980000 -0.086603 0.000000
v 1.030000 -0.100000 0.000000
v 1.080000 -0.086603 0.000000
v 1.116603 -0.050000 0.000000
v 0.978609 0.000000 -0.565000
v 0.967006 0.050000 -0.558301
v 0.935307 0.086603 -0.540000
v 0.892006 0.100000 -0.515000
v 0.848705 0.086603 -0.490000
v 0.817006 0.050000 -0.471699
v 0.805404 0.000000 -0.465000
v 0.817006 -0.050000 -0.471699
v 0.848705 -0.086603 -0.490000
v 0.892006 -0.100000 -0.515000
v 0.935307 -0.086603 -0.540000
v 0.967006 -0.050000 -0.558301
v 0.565000 0.000000 -0.978609
v 0.558301 0.050000 -0.967006
v 0.540000 0.086603 -0.935308
v 0.515000 0.100000 -0.892006
v 0.490000 0.086603 -0.848705
v 0.471699 0.050000 -0.817006
v 0.465000 0.000000 -0.805404
v 0.471699 -0.050000 -0.817006
v 0.490000 -0.086603 -0.848705
v 0.515000 -0.100000 -0.892006
v 0.540000 -0.086603 -0.935308
v 0.558301 -0.050000 -0.967006
v 0.000000 0.000000 -1.130000
v 0.000000 0.050000 -1.116603
v 0.000000 0.086603 -1.080000
v 0.000000 0.100000 -1.030000
v 0.000000 0.086603 -0.980000
v 0.000000 0.050000 -0.943398
v 0.000000 0.000000 -0.930000
v 0.000000 -0.050000 -0.943398
v 0.000000 -0.086603 -0.980000
v 0.000000 -0.100000 -1.030000
v 0.000000 -0.086603 -1.080000
v 0.000000 -0.050000 -1.116603
v -0.565000 0.000000 -0.978609
v -0.558301 0.050000 -0.967006
v -0.540000 0.086603 -0.935308
v -0.515000 0.100000 -0.892006
v -0.490000 0.086603 -0.848705
v -0.471699 0.050000 -0.817006
v -0.465000 0.000000 -0.805404
v -0.471699 -0.050000 -0.817006
v -0.490000 -0.086603 -0.848705
v -0.515000 -0.100000 -0.892006
v -0.540000 -0.086603 -0.935308
v -0.558301 -0.050000 -0.967006
v -0.978609 0.000000 -0.565000
v -0.967006 0.050000 -0.558302
v -0.935307 0.086603 -0.540000
v -0.892006 0.100000 -0.515000
v -0.848705 0.086603 -0.490000
v -0.817006 0.050000 -0.471699
v -0.805404 0.000000 -0.465000
v -0.817006 -0.050000 -0.471699
v -0.848705 -0.086603 -0.490000
v -0.892006 -0.100000 -0.515000
v -0.935307 -0.086603 -0.540000
v -0.967006 -0.050000 -0.558302
v -1.130000 0.000000 -0.000000
v -1.116603 0.050000 -0.000000
v -1.080000 0.086603 -0.000000
v -1.030000 0.100000 -0.000000
v -0.980000 0.086603 -0.000000
v -0.943398 0.050000 -0.000000
v -0.930000 0.000000 -0.000000
v -0.943398 -0.050000 -0.000000
v -0.980000 -0.086603 -0.000000
v -1.030000 -0.100000 -0.000000
v -1.080000 -0.086603 -0.000000
v -1.116603 -0.050000 -0.000000
v -0.978609 0.000000 0.565000
v -0.967006 0.050000 0.558301
v -0.935308 0.086603 0.540000
v -0.892006 0.100000 0.515000
v -0.848705 0.086603 0.490000
v -0.817006 0.050000 0.471699
v -0.805404 0.000000 0.465000
v -0.817006 -0.050000 0.471699
v -0.848705 -0.086603 0.490000
v -0.892006 -0.100000 0.515000
v -0.935308 -0.086603 0.540000
v -0.967006 -0.050000 0.558301
v -0.565000 0.000000 0.978609
v -0.558301 0.050000 0.967006
v -0.540000 0.086603 0.935308
v -0.515000 0.100000 0.892006
v -0.490000 0.086603 0.848705
v -0.471699 0.050000 0.817006
v -0.465000 0.000000 0.805404
v -0.471699 -0.050000 0.817006
v -0.490000 -0.086603 0.848705
v -0.515000 -0.100000 0.892006
v -0.540000 -0.086603 0.935308
v -0.558301 -0.050000 0.967006
v 0.000000 0.000000 1.130000
v 0.000000 0.050000 1.116603
v 0.000000 0.086603 1.080000
v 0.000000 0.100000 1.030000
v 0.000000 0.086603 0.980000
v 0.000000 0.050000 0.943398
v 0.000000 0.000000 0.930000
v 0.000000 -0.050000 0.943398
v 0.000000 -0.086603 0.980000
v 0.000000 -0.100000 1.030000
v 0.000000 -0.086603 1.080000
v 0.000000 -0.050000 1.116603
v 0.565000 0.000000 0.978609
v 0.558301 0.050000 0.967006
v 0.540000 0.086603 0.935308
v 0.515000 0.100000 0.892006
v 0.490000 0.086603 0.848705
v 0.471699 0.050000 0.817006
v 0.465000 0.000000 0.805404
v 0.471699 -0.050000 0.817006
v 0.490000 -0.086603 0.848705
v 0.515000 -0.100000 0.892006
v 0.540000 -0.086603 0.935308
v 0.558301 -0.050000 0.967006
v 0.978609 0.000000 0.565000
v 0.967006 0.050000 0.558301
v 0.935307 0.086603 0.540000
v 0.892006 0.100000 0.515000
v 0.848705 0.086603 0.490000
v 0.817006 0.050000 0.471699
v 0.805404 0.000000 0.465000
v 0.817006 -0.050000 0.471699
v 0.848705 -0.086603 0.490000
v 0.892006 -0.100000 0.515000
v 0.935307 -0.086603 0.540000
v 0.967006 -0.050000 0.558301
vt 0.583333 0.500000
vt 0.500000 0.583333
vt 0.500000 0.500000
vt 0.583333 0.583333
vt 0.500000 0.666667
vt 0.583333 0.666667
vt 0.500000 0.750000
vt 0.583333 0.750000
vt 0.500000 0.833333
vt 0.583333 0.833333
vt 0.500000 0.916667
vt 0.583333 0.916667
vt 0.500000 1.000000
vt 0.500000 0.000000
vt 0.583333 0.083333
vt 0.500000 0.083333
vt 0.500000 0.166667
vt 0.583333 0.166667
vt 0.500000 0.250000
vt 0.583333 0.250000
vt 0.500000 0.333333
vt 0.583333 0.333333
vt 0.500000 0.416667
vt 0.583333 0.416667
vt 0.666667 0.500000
vt 0.666667 0.583333
vt 0.666667 0.666667
vt 0.666667 0.750000
vt 0.666667 0.833333
vt 0.666667 0.916667
vt 0.583333 1.000000
vt 0.666667 0.000000
vt 0.583333 0.000000
vt 0.666667 0.166667
vt 0.666667 0.250000
vt 0.666667 0.333333
vt 0.666667 0.416667
vt 0.750000 0.500000
vt 0.750000 0.583333
vt 0.750000 0.666667
vt 0.750000 0.750000
vt 0.750000 0.833333
vt 0.750000 0.916667
vt 0.666667 1.000000
vt 0.750000 0.000000
vt 0.666667 0.083333
vt 0.750000 0.083333
vt 0.750000 0.250000
vt 0.750000 0.333333
vt 0.750000 0.416667
vt 0.833333 0.500000
vt 0.833333 0.666667
vt 0.833333 0.750000
vt 0.833333 0.916667
vt 0.750000 1.000000
vt 0.833333 0.000000
vt 0.833333 0.083333
vt 0.750000 0.166667
vt 0.833333 0.166667
vt 0.833333 0.333333
vt 0.833333 0.416667
vt 0.916667 0.583333
vt 0.833333 0.583333
vt 0.916667 0.666667
vt 0.916667 0.750000
vt 0.833333 0.833333
vt 0.916667 0.833333
vt 0.916667 0.916667
vt 0.833333 1.000000
vt 0.916667 0.000000
vt 0.916667 0.166667
vt 0.833333 0.250000
vt 0.916667 0.250000
vt 0.916667 0.333333
vt 0.916667 0.500000
vt 1.000000 0.500000
vt 1.000000 0.666667
vt 1.000000 0.833333
vt 1.000000 0.916667
vt 0.916667 1.000000
vt 1.000000 0.000000
vt 0.916667 0.083333
vt 1.000000 0.083333
vt 1.000000 0.166667
vt 1.000000 0.250000
vt 1.000000 0.416667
vt 0.916667 0.416667
vt 0.083333 0.500000
vt 0.000000 0.583333
vt 0.000000 0.500000
vt 0.083333 0.666667
vt 0.000000 0.666667
vt 0.000000 0.750000
vt 0.083333 0.833333
vt 0.000000 0.833333
vt 0.000000 0.916667
vt 0.083333 0.916667
vt 0.000000 1.000000
vt 0.083333 0.000000
vt 0.000000 0.083333
vt 0.000000 0.000000
vt 0.083333 0.083333
vt 0.000000 0.166667
vt 0.083333 0.166667
vt 0.000000 0.250000
vt 0.083333 0.250000
vt 0.000000 0.333333
vt 0.083333 0.333333
vt 0.000000 0.416667
vt 0.083333 0.416667
vt 0.166667 0.500000
vt 0.083333 0.583333
vt 0.166667 0.666667
vt 0.083333 0.750000
vt 0.166667 0.750000
vt 0.166667 0.833333
vt 0.166667 1.000000
vt 0.083333 1.000000
vt 0.166667 0.000000
vt 0.166667 0.083333
vt 0.166667 0.166667
vt 0.166667 0.250000
vt 0.166667 0.333333
vt 0.166667 0.416667
vt 0.250000 0.583333
vt 0.166667 0.583333
vt 0.250000 0.750000
vt 0.250000 0.916667
vt 0.166667 0.916667
vt 0.250000 0.000000
vt 0.250000 0.083333
vt 0.250000 0.166667
vt 0.250000 0.250000
vt 0.250000 0.416667
vt 0.333333 0.500000
vt 0.250000 0.500000
vt 0.333333 0.583333
vt 0.250000 0.666667
vt 0.333333 0.666667
vt 0.333333 0.750000
vt 0.250000 0.833333
vt 0.333333 0.833333
vt 0.333333 0.916667
vt 0.250000 1.000000
vt 0.333333 0.000000
vt 0.333333 0.083333
vt 0.333333 0.166667
vt 0.333333 0.250000
vt 0.250000 0.333333
vt 0.333333 0.333333
vt 0.333333 0.416667
vt 0.416667 0.500000
vt 0.416667 0.583333
vt 0.416667 0.750000
vt 0.416667 0.916667
vt 0.333333 1.000000
vt 0.416667 0.000000
vt 0.416667 0.083333
vt 0.416667 0.166667
vt 0.416667 0.250000
vt 0.416667 0.333333
vt 0.416667 0.416667
vt 0.416667 0.666667
vt 0.416667 0.833333
vt 0.416667 1.000000
vt 1.000000 0.583333
vt 1.000000 0.750000
vt 1.000000 1.000000
vt 1.000000 0.333333
vn 0.9351 0.2506 -0.2506
vn 0.6947 0.6947 -0.1862
vn 0.2582 0.9636 -0.0692
vn -0.2582 0.9636 0.0692
vn -0.6947 0.6947 0.1862
vn -0.9351 0.2506 0.2506
vn -0.9351 -0.2506 0.2506
vn -0.6947 -0.6947 0.1862
vn -0.2582 -0.9636 0.0692
vn 0.2582 -0.9636 -0.0692
vn 0.6947 -0.6947 -0.1862
vn 0.9351 -0.2506 -0.2506
vn 0.6846 0.2506 -0.6846
vn 0.5086 0.6947 -0.5086
vn 0.1890 0.9636 -0.1890
vn -0.1890 0.9636 0.1890
vn -0.5086 0.6947 0.5086
vn -0.6846 0.2506 0.6846
vn -0.6846 -0.2506 0.6846
vn -0.5086 -0.6947 0.5086
vn -0.1890 -0.9636 0.1890
vn 0.1890 -0.9636 -0.1890
vn 0.5086 -0.6947 -0.5086
vn 0.6845 -0.2506 -0.6845
vn 0.2506 0.2506 -0.9351
vn 0.1862 0.6947 -0.6947
vn 0.0692 0.9636 -0.2582
vn -0.0692 0.9636 0.2582
vn -0.1862 0.6947 0.6947
vn -0.2506 0.2506 0.9351
vn -0.2506 -0.2506 0.9351
vn -0.1862 -0.6947 0.6947
vn -0.0692 -0.9636 0.2582
vn 0.0692 -0.9636 -0.2582
vn 0.1862 -0.6947 -0.6947
vn 0.2506 -0.2506 -0.9351
vn -0.2506 0.2506 -0.9351
vn -0.1862 0.6947 -0.6947
vn -0.0692 0.9636 -0.2582
vn 0.0692 0.9636 0.2582
vn 0.1862 0.6947 0.6947
vn 0.2506 0.2506 0.9351
vn 0.2506 -0.2506 0.9351
vn 0.1862 -0.6947 0.6947
vn 0.0692 -0.9636 0.2582
vn -0.0692 -0.9636 -0.2582
vn -0.1862 -0.6947 -0.6947
vn -0.2506 -0.2506 -0.9351
vn -0.6846 0.2506 -0.6846
vn -0.5086 0.6947 -0.5086
vn -0.1890 0.9636 -0.1890
vn 0.1890 0.9636 0.1890
vn 0.5086 0.6947 0.5086
vn 0.6846 0.2506 0.6846
vn 0.6846 -0.2506 0.6846
vn 0.5086 -0.6947 0.5086
vn 0.1890 -0.9636 0.1890
vn -0.1890 -0.9636 -0.1890
vn -0.5086 -0.6947 -0.5086
vn -0.6846 -0.2506 -0.6846
vn -0.9351 0.2506 -0.2506
vn -0.6947 0.6947 -0.1862
vn -0.2582 0.9636 -0.0692
vn 0.2582 0.9636 0.0692
vn 0.6947 0.6947 0.1862
vn 0.9351 0.2506 0.2506
vn 0.9351 -0.2506 0.2506
vn 0.6947 -0.6947 0.1862
vn 0.2582 -0.9636 0.0692
vn -0.2582 -0.9636 -0.0692
vn -0.6947 -0.6947 -0.1862
vn -0.9351 -0.2506 -0.2506
vn 0.6846 -0.2506 -0.6846
vn 0.6845 -0.2506 0.6846
vn 0.6845 0.2506 0.6846
vn -0.6845 -0.2506 -0.6846
vn 0.6845 0.2506 0.6845
usemtl マテリアル.001
s off
f 13/1/1 2/2/1 1/3/1
f 14/4/2 3/5/2 2/2/2
f 15/6/3 4/7/3 3/5/3
f 16/8/4 5/9/4 4/7/4
f 17/10/5 6/11/5 5/9/5
f 18/12/6 7/13/6 6/11/6
f 7/14/7 20/15/7 8/16/7
f 20/15/8 9/17/8 8/16/8
f 21/18/9 10/19/9 9/17/9
f 22/20/10 11/21/10 10/19/10
f 23/22/11 12/23/11 11/21/11
f 24/24/12 1/3/12 12/23/12
f 25/25/13 14/4/13 13/1/13
f 26/26/14 15/6/14 14/4/14
f 27/27/15 16/8/15 15/6/15
f 28/28/16 17/10/16 16/8/16
f 29/29/17 18/12/17 17/10/17
f 30/30/18 19/31/18 18/12/18
f 31/32/19 20/15/19 19/33/19
f 20/15/20 33/34/20 21/18/20
f 33/34/21 22/20/21 21/18/21
f 34/35/22 23/22/22 22/20/22
f 35/36/23 24/24/23 23/22/23
f 36/37/24 13/1/24 24/24/24
f 37/38/25 26/26/25 25/25/25
f 38/39/26 27/27/26 26/26/26
f 39/40/27 28/28/27 27/27/27
f 40/41/28 29/29/28 28/28/28
f 41/42/29 30/30/29 29/29/29
f 42/43/30 31/44/30 30/30/30
f 43/45/31 32/46/31 31/32/31
f 44/47/32 33/34/32 32/46/32
f 33/34/33 46/48/33 34/35/33
f 46/48/34 35/36/34 34/35/34
f 47/49/35 36/37/35 35/36/35
f 48/50/36 25/25/36 36/37/36
f 49/51/37 38/39/37 37/38/37
f 38/39/38 51/52/38 39/40/38
f 51/52/39 40/41/39 39/40/39
f 52/53/40 41/42/40 40/41/40
f 41/42/41 54/54/41 42/43/41
f 54/54/42 43/55/42 42/43/42
f 55/56/43 44/47/43 43/45/43
f 56/57/44 45/58/44 44/47/44
f 57/59/45 46/48/45 45/58/45
f 46/48/46 59/60/46 47/49/46
f 59/60/47 48/50/47 47/49/47
f 60/61/48 37/38/48 48/50/48
f 49/51/49 62/62/49 50/63/49
f 62/62/50 51/52/50 50/63/50
f 63/64/51 52/53/51 51/52/51
f 64/65/52 53/66/52 52/53/52
f 65/67/53 54/54/53 53/66/53
f 66/68/54 55/69/54 54/54/54
f 67/70/55 56/57/55 55/56/55
f 56/57/56 69/71/56 57/59/56
f 69/71/57 58/72/57 57/59/57
f 70/73/58 59/60/58 58/72/58
f 71/74/59 60/61/59 59/60/59
f 60/61/60 61/75/60 49/51/60
f 73/76/61 62/62/61 61/75/61
f 62/62/62 75/77/62 63/64/62
f 75/77/63 64/65/63 63/64/63
f 64/65/64 77/78/64 65/67/64
f 77/78/65 66/68/65 65/67/65
f 78/79/66 67/80/66 66/68/66
f 79/81/67 68/82/67 67/70/67
f 80/83/68 69/71/68 68/82/68
f 81/84/69 70/73/69 69/71/69
f 82/85/70 71/74/70 70/73/70
f 71/74/71 84/86/71 72/87/71
f 72/87/72 73/76/72 61/75/72
f 85/88/6 74/89/6 73/90/6
f 74/89/5 87/91/5 75/92/5
f 87/91/4 76/93/4 75/92/4
f 76/93/3 89/94/3 77/95/3
f 89/94/2 78/96/2 77/95/2
f 90/97/1 79/98/1 78/96/1
f 91/99/12 80/100/12 79/101/12
f 92/102/11 81/103/11 80/100/11
f 93/104/10 82/105/10 81/103/10
f 94/106/9 83/107/9 82/105/9
f 95/108/8 84/109/8 83/107/8
f 96/110/7 73/90/7 84/109/7
f 97/111/18 86/112/18 85/88/18
f 86/112/17 99/113/17 87/91/17
f 99/113/16 88/114/16 87/91/16
f 100/115/15 89/94/15 88/114/15
f 101/116/14 90/97/14 89/94/14
f 90/97/13 103/117/13 91/118/13
f 103/119/73 92/102/73 91/99/73
f 104/120/23 93/104/23 92/102/23
f 105/121/22 94/106/22 93/104/22
f 106/122/21 95/108/21 94/106/21
f 107/123/20 96/110/20 95/108/20
f 108/124/19 85/88/19 96/110/19
f 97/111/30 110/125/30 98/126/30
f 110/125/29 99/113/29 98/126/29
f 99/113/28 112/127/28 100/115/28
f 112/127/27 101/116/27 100/115/27
f 101/116/26 114/128/26 102/129/26
f 114/128/25 103/117/25 102/129/25
f 115/130/36 104/120/36 103/119/36
f 116/131/35 105/121/35 104/120/35
f 117/132/34 106/122/34 105/121/34
f 118/133/33 107/123/33 106/122/33
f 107/123/32 120/134/32 108/124/32
f 120/134/31 97/111/31 108/124/31
f 121/135/42 110/125/42 109/136/42
f 122/137/41 111/138/41 110/125/41
f 123/139/40 112/127/40 111/138/40
f 124/140/39 113/141/39 112/127/39
f 125/142/38 114/128/38 113/141/38
f 126/143/37 115/144/37 114/128/37
f 127/145/48 116/131/48 115/130/48
f 128/146/47 117/132/47 116/131/47
f 129/147/46 118/133/46 117/132/46
f 130/148/45 119/149/45 118/133/45
f 131/150/44 120/134/44 119/149/44
f 132/151/43 109/136/43 120/134/43
f 133/152/54 122/137/54 121/135/54
f 134/153/53 123/139/53 122/137/53
f 123/139/52 136/154/52 124/140/52
f 136/154/51 125/142/51 124/140/51
f 125/142/50 138/155/50 126/143/50
f 138/155/49 127/156/49 126/143/49
f 139/157/60 128/146/60 127/145/60
f 140/158/59 129/147/59 128/146/59
f 141/159/58 130/148/58 129/147/58
f 142/160/57 131/150/57 130/148/57
f 143/161/56 132/151/56 131/150/56
f 144/162/74 121/135/74 132/151/74
f 1/3/66 134/153/66 133/152/66
f 2/2/65 135/163/65 134/153/65
f 135/163/64 4/7/64 136/154/64
f 4/7/63 137/164/63 136/154/63
f 5/9/62 138/155/62 137/164/62
f 6/11/61 139/165/61 138/155/61
f 7/14/72 140/158/72 139/157/72
f 8/16/71 141/159/71 140/158/71
f 9/17/70 142/160/70 141/159/70
f 10/19/69 143/161/69 142/160/69
f 11/21/68 144/162/68 143/161/68
f 12/23/67 133/152/67 144/162/67
f 13/1/1 14/4/1 2/2/1
f 14/4/2 15/6/2 3/5/2
f 15/6/3 16/8/3 4/7/3
f 16/8/4 17/10/4 5/9/4
f 17/10/5 18/12/5 6/11/5
f 18/12/6 19/31/6 7/13/6
f 7/14/7 19/33/7 20/15/7
f 20/15/8 21/18/8 9/17/8
f 21/18/9 22/20/9 10/19/9
f 22/20/10 23/22/10 11/21/10
f 23/22/11 24/24/11 12/23/11
f 24/24/12 13/1/12 1/3/12
f 25/25/13 26/26/13 14/4/13
f 26/26/14 27/27/14 15/6/14
f 27/27/15 28/28/15 16/8/15
f 28/28/16 29/29/16 17/10/16
f 29/29/17 30/30/17 18/12/17
f 30/30/18 31/44/18 19/31/18
f 31/32/19 32/46/19 20/15/19
f 20/15/20 32/46/20 33/34/20
f 33/34/21 34/35/21 22/20/21
f 34/35/22 35/36/22 23/22/22
f 35/36/23 36/37/23 24/24/23
f 36/37/73 25/25/73 13/1/73
f 37/38/25 38/39/25 26/26/25
f 38/39/26 39/40/26 27/27/26
f 39/40/27 40/41/27 28/28/27
f 40/41/28 41/42/28 29/29/28
f 41/42/29 42/43/29 30/30/29
f 42/43/30 43/55/30 31/44/30
f 43/45/31 44/47/31 32/46/31
f 44/47/32 45/58/32 33/34/32
f 33/34/33 45/58/33 46/48/33
f 46/48/34 47/49/34 35/36/34
f 47/49/35 48/50/35 36/37/35
f 48/50/36 37/38/36 25/25/36
f 49/51/37 50/63/37 38/39/37
f 38/39/38 50/63/38 51/52/38
f 51/52/39 52/53/39 40/41/39
f 52/53/40 53/66/40 41/42/40
f 41/42/41 53/66/41 54/54/41
f 54/54/42 55/69/42 43/55/42
f 55/56/43 56/57/43 44/47/43
f 56/57/44 57/59/44 45/58/44
f 57/59/45 58/72/45 46/48/45
f 46/48/46 58/72/46 59/60/46
f 59/60/47 60/61/47 48/50/47
f 60/61/48 49/51/48 37/38/48
f 49/51/49 61/75/49 62/62/49
f 62/62/50 63/64/50 51/52/50
f 63/64/51 64/65/51 52/53/51
f 64/65/52 65/67/52 53/66/52
f 65/67/53 66/68/53 54/54/53
f 66/68/75 67/80/75 55/69/75
f 67/70/74 68/82/74 56/57/74
f 56/57/56 68/82/56 69/71/56
f 69/71/57 70/73/57 58/72/57
f 70/73/58 71/74/58 59/60/58
f 71/74/59 72/87/59 60/61/59
f 60/61/76 72/87/76 61/75/76
f 73/76/61 74/166/61 62/62/61
f 62/62/62 74/166/62 75/77/62
f 75/77/63 76/167/63 64/65/63
f 64/65/64 76/167/64 77/78/64
f 77/78/65 78/79/65 66/68/65
f 78/79/66 79/168/66 67/80/66
f 79/81/67 80/83/67 68/82/67
f 80/83/68 81/84/68 69/71/68
f 81/84/69 82/85/69 70/73/69
f 82/85/70 83/169/70 71/74/70
f 71/74/71 83/169/71 84/86/71
f 72/87/72 84/86/72 73/76/72
f 85/88/6 86/112/6 74/89/6
f 74/89/5 86/112/5 87/91/5
f 87/91/4 88/114/4 76/93/4
f 76/93/3 88/114/3 89/94/3
f 89/94/2 90/97/2 78/96/2
f 90/97/1 91/118/1 79/98/1
f 91/99/12 92/102/12 80/100/12
f 92/102/11 93/104/11 81/103/11
f 93/104/10 94/106/10 82/105/10
f 94/106/9 95/108/9 83/107/9
f 95/108/8 96/110/8 84/109/8
f 96/110/7 85/88/7 73/90/7
f 97/111/18 98/126/18 86/112/18
f 86/112/17 98/126/17 99/113/17
f 99/113/16 100/115/16 88/114/16
f 100/115/15 101/116/15 89/94/15
f 101/116/14 102/129/14 90/97/14
f 90/97/13 102/129/13 103/117/13
f 103/119/73 104/120/73 92/102/73
f 104/120/23 105/121/23 93/104/23
f 105/121/22 106/122/22 94/106/22
f 106/122/21 107/123/21 95/108/21
f 107/123/20 108/124/20 96/110/20
f 108/124/19 97/111/19 85/88/19
f 97/111/30 109/136/30 110/125/30
f 110/125/29 111/138/29 99/113/29
f 99/113/28 111/138/28 112/127/28
f 112/127/27 113/141/27 101/116/27
f 101/116/26 113/141/26 114/128/26
f 114/128/25 115/144/25 103/117/25
f 115/130/36 116/131/36 104/120/36
f 116/131/35 117/132/35 105/121/35
f 117/132/34 118/133/34 106/122/34
f 118/133/33 119/149/33 107/123/33
f 107/123/32 119/149/32 120/134/32
f 120/134/31 109/136/31 97/111/31
f 121/135/42 122/137/42 110/125/42
f 122/137/41 123/139/41 111/138/41
f 123/139/40 124/140/40 112/127/40
f 124/140/39 125/142/39 113/141/39
f 125/142/38 126/143/38 114/128/38
f 126/143/37 127/156/37 115/144/37
f 127/145/48 128/146/48 116/131/48
f 128/146/47 129/147/47 117/132/47
f 129/147/46 130/148/46 118/133/46
f 130/148/45 131/150/45 119/149/45
f 131/150/44 132/151/44 120/134/44
f 132/151/43 121/135/43 109/136/43
f 133/152/77 134/153/77 122/137/77
f 134/153/53 135/163/53 123/139/53
f 123/139/52 135/163/52 136/154/52
f 136/154/51 137/164/51 125/142/51
f 125/142/50 137/164/50 138/155/50
f 138/155/49 139/165/49 127/156/49
f 139/157/60 140/158/60 128/146/60
f 140/158/59 141/159/59 129/147/59
f 141/159/58 142/160/58 130/148/58
f 142/160/57 143/161/57 131/150/57
f 143/161/56 144/162/56 132/151/56
f 144/162/55 133/152/55 121/135/55
f 1/3/66 2/2/66 134/153/66
f 2/2/65 3/5/65 135/163/65
f 135/163/64 3/5/64 4/7/64
f 4/7/63 5/9/63 137/164/63
f 5/9/62 6/11/62 138/155/62
f 6/11/61 7/13/61 139/165/61
f 7/14/72 8/16/72 140/158/72
f 8/16/71 9/17/71 141/159/71
f 9/17/70 10/19/70 142/160/70
f 10/19/69 11/21/69 143/161/69
f 11/21/68 12/23/68 144/162/68
f 12/23/67 1/3/67 133/152/67
