# Blender v3.1.2 OBJ File: ''
# www.blender.org
mtllib Goal.mtl
o 立方体
v -0.050000 1.920766 1.975060
v -0.050000 1.920845 1.975060
v -0.050000 0.979113 -0.024940
v -0.050000 2.979113 -0.024940
v 0.050000 1.920766 1.975060
v 0.050000 1.920845 1.975060
v 0.050000 0.979113 -0.024940
v 0.050000 2.979113 -0.024940
v 0.000000 -0.050000 -1.000000
v 0.000000 0.050000 -1.000000
v 0.195090 -0.050000 -0.980785
v 0.195090 0.050000 -0.980785
v 0.382683 -0.050000 -0.923880
v 0.382683 0.050000 -0.923880
v 0.555570 -0.050000 -0.831470
v 0.555570 0.050000 -0.831470
v 0.707107 -0.050000 -0.707107
v 0.707107 0.050000 -0.707107
v 0.831470 -0.050000 -0.555570
v 0.831470 0.050000 -0.555570
v 0.923880 -0.050000 -0.382683
v 0.923880 0.050000 -0.382683
v 0.980785 -0.050000 -0.195090
v 0.980785 0.050000 -0.195090
v 1.000000 -0.050000 0.000000
v 1.000000 0.050000 0.000000
v 0.980785 -0.050000 0.195090
v 0.980785 0.050000 0.195090
v 0.923880 -0.050000 0.382683
v 0.923880 0.050000 0.382683
v 0.831470 -0.050000 0.555570
v 0.831470 0.050000 0.555570
v 0.707107 -0.050000 0.707107
v 0.707107 0.050000 0.707107
v 0.555570 -0.050000 0.831470
v 0.555570 0.050000 0.831470
v 0.382683 -0.050000 0.923880
v 0.382683 0.050000 0.923880
v 0.195090 -0.050000 0.980785
v 0.195090 0.050000 0.980785
v -0.000000 -0.050000 1.000000
v -0.000000 0.050000 1.000000
v -0.195090 -0.050000 0.980785
v -0.195090 0.050000 0.980785
v -0.382683 -0.050000 0.923880
v -0.382683 0.050000 0.923880
v -0.555570 -0.050000 0.831470
v -0.555570 0.050000 0.831470
v -0.707107 -0.050000 0.707107
v -0.707107 0.050000 0.707107
v -0.831469 -0.050000 0.555570
v -0.831469 0.050000 0.555570
v -0.923880 -0.050000 0.382684
v -0.923880 0.050000 0.382684
v -0.980785 -0.050000 0.195090
v -0.980785 0.050000 0.195090
v -1.000000 -0.050000 0.000000
v -1.000000 0.050000 0.000000
v -0.980785 -0.050000 -0.195090
v -0.980785 0.050000 -0.195090
v -0.923879 -0.050000 -0.382684
v -0.923879 0.050000 -0.382684
v -0.831470 -0.050000 -0.555570
v -0.831470 0.050000 -0.555570
v -0.707107 -0.050000 -0.707107
v -0.707107 0.050000 -0.707107
v -0.555570 -0.050000 -0.831470
v -0.555570 0.050000 -0.831470
v -0.382683 -0.050000 -0.923880
v -0.382683 0.050000 -0.923880
v -0.195090 -0.050000 -0.980785
v -0.195090 0.050000 -0.980785
v 0.000000 0.005847 -0.100000
v 0.000000 3.005847 -0.100000
v 0.019509 0.005847 -0.098078
v 0.019509 3.005847 -0.098078
v 0.038268 0.005847 -0.092388
v 0.038268 3.005847 -0.092388
v 0.055557 0.005847 -0.083147
v 0.055557 3.005847 -0.083147
v 0.070711 0.005847 -0.070711
v 0.070711 3.005847 -0.070711
v 0.083147 0.005847 -0.055557
v 0.083147 3.005847 -0.055557
v 0.092388 0.005847 -0.038268
v 0.092388 3.005847 -0.038268
v 0.098079 0.005847 -0.019509
v 0.098079 3.005847 -0.019509
v 0.100000 0.005847 0.000000
v 0.100000 3.005847 0.000000
v 0.098079 0.005847 0.019509
v 0.098079 3.005847 0.019509
v 0.092388 0.005847 0.038268
v 0.092388 3.005847 0.038268
v 0.083147 0.005847 0.055557
v 0.083147 3.005847 0.055557
v 0.070711 0.005847 0.070711
v 0.070711 3.005847 0.070711
v 0.055557 0.005847 0.083147
v 0.055557 3.005847 0.083147
v 0.038268 0.005847 0.092388
v 0.038268 3.005847 0.092388
v 0.019509 0.005847 0.098079
v 0.019509 3.005847 0.098079
v -0.000000 0.005847 0.100000
v -0.000000 3.005847 0.100000
v -0.019509 0.005847 0.098079
v -0.019509 3.005847 0.098079
v -0.038268 0.005847 0.092388
v -0.038268 3.005847 0.092388
v -0.055557 0.005847 0.083147
v -0.055557 3.005847 0.083147
v -0.070711 0.005847 0.070711
v -0.070711 3.005847 0.070711
v -0.083147 0.005847 0.055557
v -0.083147 3.005847 0.055557
v -0.092388 0.005847 0.038268
v -0.092388 3.005847 0.038268
v -0.098079 0.005847 0.019509
v -0.098079 3.005847 0.019509
v -0.100000 0.005847 0.000000
v -0.100000 3.005847 0.000000
v -0.098079 0.005847 -0.019509
v -0.098079 3.005847 -0.019509
v -0.092388 0.005847 -0.038268
v -0.092388 3.005847 -0.038268
v -0.083147 0.005847 -0.055557
v -0.083147 3.005847 -0.055557
v -0.070711 0.005847 -0.070711
v -0.070711 3.005847 -0.070711
v -0.055557 0.005847 -0.083147
v -0.055557 3.005847 -0.083147
v -0.038268 0.005847 -0.092388
v -0.038268 3.005847 -0.092388
v -0.019509 0.005847 -0.098078
v -0.019509 3.005847 -0.098078
vt 0.421552 0.849311
vt 0.635726 0.947865
vt 0.421552 0.849381
vt 0.733137 0.641081
vt 0.519915 0.591081
vt 0.733137 0.591081
vt 0.863558 0.727489
vt 0.650336 0.833075
vt 0.650336 0.833028
vt 0.880340 0.168455
vt 0.887307 0.118455
vt 0.887307 0.168455
vt 0.733137 0.538261
vt 0.519915 0.591081
vt 0.519915 0.538261
vt 0.519915 0.538261
vt 0.733137 0.484774
vt 0.733137 0.538261
vt 0.951048 0.621809
vt 0.975671 0.554775
vt 0.975671 0.621809
vt 0.951048 0.554775
vt 0.975671 0.490319
vt 0.951048 0.490319
vt 0.975671 0.430915
vt 0.951048 0.430915
vt 0.975671 0.378847
vt 0.951048 0.378847
vt 0.975671 0.336116
vt 0.951048 0.336116
vt 0.975671 0.304364
vt 0.951048 0.304364
vt 0.975671 0.284811
vt 0.951048 0.284811
vt 0.975671 0.278209
vt 0.926425 0.965409
vt 0.951048 0.958807
vt 0.951048 0.965409
vt 0.926425 0.958807
vt 0.951048 0.939254
vt 0.926425 0.939254
vt 0.951048 0.907502
vt 0.926425 0.907502
vt 0.951048 0.864771
vt 0.926425 0.864771
vt 0.951048 0.812702
vt 0.926425 0.812702
vt 0.951048 0.753299
vt 0.926425 0.753299
vt 0.951048 0.688842
vt 0.926425 0.688842
vt 0.951048 0.621809
vt 0.926425 0.621809
vt 0.951048 0.554775
vt 0.926425 0.554775
vt 0.951048 0.490319
vt 0.926425 0.490319
vt 0.951048 0.430915
vt 0.926425 0.430915
vt 0.951048 0.378847
vt 0.926425 0.378847
vt 0.951048 0.336116
vt 0.926425 0.336116
vt 0.951048 0.304364
vt 0.926425 0.304364
vt 0.951048 0.284811
vt 0.926425 0.284811
vt 0.951048 0.278209
vt 0.951048 0.965409
vt 0.975671 0.958807
vt 0.975671 0.965409
vt 0.951048 0.958807
vt 0.975671 0.939253
vt 0.951048 0.939253
vt 0.975671 0.907502
vt 0.951048 0.907502
vt 0.975671 0.864771
vt 0.951048 0.864771
vt 0.975671 0.812702
vt 0.951048 0.812702
vt 0.975671 0.753299
vt 0.249175 0.853628
vt 0.234512 0.777876
vt 0.398050 0.853458
vt 0.951048 0.753299
vt 0.975671 0.688842
vt 0.951048 0.688842
vt 0.012007 0.777676
vt 0.004055 0.691221
vt 0.187457 0.777876
vt 0.551947 0.299832
vt 0.731568 0.281007
vt 0.731568 0.299832
vt 0.551947 0.281007
vt 0.731568 0.262906
vt 0.551947 0.262906
vt 0.731568 0.246223
vt 0.551947 0.246223
vt 0.731568 0.231601
vt 0.551947 0.231601
vt 0.731568 0.219601
vt 0.551947 0.219601
vt 0.731568 0.210684
vt 0.551947 0.210684
vt 0.731568 0.205193
vt 0.551947 0.205193
vt 0.731568 0.203339
vt 0.551947 0.203339
vt 0.731568 0.201485
vt 0.551947 0.201485
vt 0.731568 0.195994
vt 0.551947 0.195994
vt 0.731568 0.187077
vt 0.551947 0.187077
vt 0.731568 0.175077
vt 0.551947 0.175077
vt 0.731568 0.160455
vt 0.551947 0.160455
vt 0.731568 0.143773
vt 0.551947 0.143773
vt 0.731568 0.125671
vt 0.551947 0.125671
vt 0.731568 0.106846
vt 0.551947 0.106846
vt 0.731568 0.088021
vt 0.551947 0.088021
vt 0.731568 0.069920
vt 0.551947 0.069920
vt 0.731568 0.053237
vt 0.551947 0.053237
vt 0.731568 0.038615
vt 0.551947 0.038615
vt 0.731568 0.026615
vt 0.551947 0.026615
vt 0.731568 0.017698
vt 0.551947 0.017698
vt 0.731568 0.012207
vt 0.551947 0.012207
vt 0.731568 0.010353
vt 0.551947 0.396325
vt 0.731568 0.394471
vt 0.731568 0.396325
vt 0.551947 0.394471
vt 0.731568 0.388980
vt 0.551947 0.388980
vt 0.731568 0.380063
vt 0.551947 0.380063
vt 0.731568 0.368063
vt 0.551947 0.368063
vt 0.731568 0.353441
vt 0.551947 0.353441
vt 0.731568 0.336758
vt 0.874912 0.133108
vt 0.877573 0.140686
vt 0.840528 0.133091
vt 0.551947 0.336758
vt 0.731568 0.318657
vt 0.551947 0.318657
vt 0.834487 0.096223
vt 0.832651 0.087578
vt 0.875008 0.096244
vt 0.635687 0.739123
vt 0.519915 0.641081
vt 0.863558 0.951643
vt 0.880340 0.118455
vt 0.733137 0.591081
vt 0.519915 0.484774
vt 0.951048 0.278209
vt 0.926425 0.278209
vt 0.222992 0.691444
vt 0.215056 0.597656
vt 0.421552 0.597420
vt 0.211011 0.500114
vt 0.421552 0.499874
vt 0.211011 0.402567
vt 0.417507 0.402332
vt 0.215056 0.308765
vt 0.409571 0.308544
vt 0.222992 0.222313
vt 0.234512 0.146530
vt 0.398051 0.222113
vt 0.249176 0.084332
vt 0.383387 0.146360
vt 0.266417 0.038105
vt 0.366146 0.084198
vt 0.285575 0.009630
vt 0.346988 0.038013
vt 0.305913 0.000000
vt 0.326650 0.009584
vt 0.417507 0.691223
vt 0.409571 0.777676
vt 0.383387 0.915657
vt 0.366146 0.961882
vt 0.266417 0.915791
vt 0.346988 0.990358
vt 0.305913 0.990404
vt 0.326650 0.999989
vt 0.285575 0.961975
vt 0.000000 0.597420
vt 0.000000 0.499874
vt 0.211011 0.500114
vt 0.004055 0.402332
vt 0.211011 0.402569
vt 0.012007 0.308542
vt 0.023554 0.222113
vt 0.206957 0.308765
vt 0.038250 0.146360
vt 0.187457 0.146530
vt 0.055530 0.084198
vt 0.172761 0.084332
vt 0.074731 0.038013
vt 0.095114 0.009584
vt 0.155481 0.038107
vt 0.115897 0.000000
vt 0.136280 0.009630
vt 0.199003 0.222313
vt 0.206957 0.597656
vt 0.199003 0.691444
vt 0.172761 0.853628
vt 0.023554 0.853458
vt 0.155481 0.915791
vt 0.038250 0.915657
vt 0.136280 0.961975
vt 0.115897 0.990404
vt 0.055530 0.961882
vt 0.095114 0.999989
vt 0.074731 0.990356
vt 0.551947 0.010353
vt 0.879405 0.149331
vt 0.880340 0.158711
vt 0.832649 0.158688
vt 0.880340 0.168466
vt 0.831714 0.168442
vt 0.879405 0.178220
vt 0.831714 0.178197
vt 0.877573 0.187599
vt 0.832649 0.187577
vt 0.874912 0.196242
vt 0.871525 0.203817
vt 0.834481 0.196222
vt 0.867544 0.210034
vt 0.837142 0.203800
vt 0.863119 0.214652
vt 0.840528 0.210020
vt 0.858421 0.217495
vt 0.844510 0.214643
vt 0.853632 0.218453
vt 0.848936 0.217490
vt 0.834481 0.149309
vt 0.837142 0.140666
vt 0.844510 0.126874
vt 0.848936 0.122256
vt 0.871525 0.126888
vt 0.853632 0.119413
vt 0.863119 0.119418
vt 0.858421 0.118455
vt 0.867544 0.122265
vt 0.831714 0.078198
vt 0.831714 0.068443
vt 0.880448 0.068467
vt 0.832651 0.058689
vt 0.880448 0.058713
vt 0.834487 0.049310
vt 0.837154 0.040667
vt 0.879512 0.049333
vt 0.840548 0.033092
vt 0.875008 0.033109
vt 0.844539 0.026876
vt 0.871614 0.026889
vt 0.848973 0.022257
vt 0.853681 0.019414
vt 0.867623 0.022267
vt 0.858481 0.018456
vt 0.863189 0.019419
vt 0.877675 0.040687
vt 0.879512 0.078221
vt 0.877675 0.087600
vt 0.871614 0.103819
vt 0.837154 0.103802
vt 0.867623 0.110035
vt 0.840548 0.110022
vt 0.863189 0.114653
vt 0.858481 0.117496
vt 0.844539 0.114644
vt 0.853681 0.118455
vt 0.848973 0.117492
vn -1.0000 0.0000 0.0000
vn 0.0000 0.0000 -1.0000
vn 1.0000 0.0000 0.0000
vn 0.0000 0.0000 1.0000
vn 0.0000 -0.9047 0.4260
vn 0.0000 0.8839 0.4677
vn 0.0980 0.0000 -0.9952
vn 0.2903 0.0000 -0.9569
vn 0.4714 0.0000 -0.8819
vn 0.6344 0.0000 -0.7730
vn 0.7730 0.0000 -0.6344
vn 0.8819 0.0000 -0.4714
vn 0.9569 0.0000 -0.2903
vn 0.9952 0.0000 -0.0980
vn 0.9952 0.0000 0.0980
vn 0.9569 0.0000 0.2903
vn 0.8819 0.0000 0.4714
vn 0.7730 0.0000 0.6344
vn 0.6344 0.0000 0.7730
vn 0.4714 0.0000 0.8819
vn 0.2903 0.0000 0.9569
vn 0.0980 0.0000 0.9952
vn -0.0980 0.0000 0.9952
vn -0.2903 0.0000 0.9569
vn -0.4714 0.0000 0.8819
vn -0.6344 0.0000 0.7730
vn -0.7730 0.0000 0.6344
vn -0.8819 0.0000 0.4714
vn -0.9569 0.0000 0.2903
vn -0.9952 0.0000 0.0980
vn -0.9952 0.0000 -0.0980
vn -0.9569 0.0000 -0.2903
vn -0.8819 0.0000 -0.4714
vn -0.7730 0.0000 -0.6344
vn -0.6344 0.0000 -0.7730
vn -0.4714 0.0000 -0.8819
vn 0.0000 1.0000 0.0000
vn -0.2903 0.0000 -0.9569
vn -0.0980 0.0000 -0.9952
vn 0.0000 -1.0000 0.0000
usemtl マテリアル
s off
f 2/1/1 3/2/1 1/3/1
f 4/4/2 7/5/2 3/6/2
f 7/7/3 6/8/3 5/9/3
f 6/10/4 1/11/4 5/12/4
f 7/13/5 1/14/5 3/15/5
f 4/16/6 6/17/6 8/18/6
f 10/19/7 11/20/7 9/21/7
f 12/22/8 13/23/8 11/20/8
f 14/24/9 15/25/9 13/23/9
f 16/26/10 17/27/10 15/25/10
f 18/28/11 19/29/11 17/27/11
f 20/30/12 21/31/12 19/29/12
f 22/32/13 23/33/13 21/31/13
f 24/34/14 25/35/14 23/33/14
f 26/36/15 27/37/15 25/38/15
f 28/39/16 29/40/16 27/37/16
f 30/41/17 31/42/17 29/40/17
f 32/43/18 33/44/18 31/42/18
f 34/45/19 35/46/19 33/44/19
f 36/47/20 37/48/20 35/46/20
f 38/49/21 39/50/21 37/48/21
f 40/51/22 41/52/22 39/50/22
f 42/53/23 43/54/23 41/52/23
f 44/55/24 45/56/24 43/54/24
f 46/57/25 47/58/25 45/56/25
f 48/59/26 49/60/26 47/58/26
f 50/61/27 51/62/27 49/60/27
f 52/63/28 53/64/28 51/62/28
f 54/65/29 55/66/29 53/64/29
f 56/67/30 57/68/30 55/66/30
f 58/69/31 59/70/31 57/71/31
f 60/72/32 61/73/32 59/70/32
f 62/74/33 63/75/33 61/73/33
f 64/76/34 65/77/34 63/75/34
f 66/78/35 67/79/35 65/77/35
f 68/80/36 69/81/36 67/79/36
f 18/82/37 16/83/37 34/84/37
f 70/85/38 71/86/38 69/81/38
f 72/87/39 9/21/39 71/86/39
f 67/88/40 69/89/40 47/90/40
f 74/91/7 75/92/7 73/93/7
f 76/94/8 77/95/8 75/92/8
f 78/96/9 79/97/9 77/95/9
f 80/98/10 81/99/10 79/97/10
f 82/100/11 83/101/11 81/99/11
f 84/102/12 85/103/12 83/101/12
f 86/104/13 87/105/13 85/103/13
f 88/106/14 89/107/14 87/105/14
f 90/108/15 91/109/15 89/107/15
f 92/110/16 93/111/16 91/109/16
f 94/112/17 95/113/17 93/111/17
f 96/114/18 97/115/18 95/113/18
f 98/116/19 99/117/19 97/115/19
f 100/118/20 101/119/20 99/117/20
f 102/120/21 103/121/21 101/119/21
f 104/122/22 105/123/22 103/121/22
f 106/124/23 107/125/23 105/123/23
f 108/126/24 109/127/24 107/125/24
f 110/128/25 111/129/25 109/127/25
f 112/130/26 113/131/26 111/129/26
f 114/132/27 115/133/27 113/131/27
f 116/134/28 117/135/28 115/133/28
f 118/136/29 119/137/29 117/135/29
f 120/138/30 121/139/30 119/137/30
f 122/140/31 123/141/31 121/142/31
f 124/143/32 125/144/32 123/141/32
f 126/145/33 127/146/33 125/144/33
f 128/147/34 129/148/34 127/146/34
f 130/149/35 131/150/35 129/148/35
f 132/151/36 133/152/36 131/150/36
f 82/153/37 80/154/37 98/155/37
f 134/156/38 135/157/38 133/152/38
f 136/158/39 73/93/39 135/157/39
f 131/159/40 133/160/40 111/161/40
f 2/1/1 4/162/1 3/2/1
f 4/4/2 8/163/2 7/5/2
f 7/7/3 8/164/3 6/8/3
f 6/10/4 2/165/4 1/11/4
f 7/13/5 5/166/5 1/14/5
f 4/16/6 2/167/6 6/17/6
f 10/19/7 12/22/7 11/20/7
f 12/22/8 14/24/8 13/23/8
f 14/24/9 16/26/9 15/25/9
f 16/26/10 18/28/10 17/27/10
f 18/28/11 20/30/11 19/29/11
f 20/30/12 22/32/12 21/31/12
f 22/32/13 24/34/13 23/33/13
f 24/34/14 26/168/14 25/35/14
f 26/36/15 28/39/15 27/37/15
f 28/39/16 30/41/16 29/40/16
f 30/41/17 32/43/17 31/42/17
f 32/43/18 34/45/18 33/44/18
f 34/45/19 36/47/19 35/46/19
f 36/47/20 38/49/20 37/48/20
f 38/49/21 40/51/21 39/50/21
f 40/51/22 42/53/22 41/52/22
f 42/53/23 44/55/23 43/54/23
f 44/55/24 46/57/24 45/56/24
f 46/57/25 48/59/25 47/58/25
f 48/59/26 50/61/26 49/60/26
f 50/61/27 52/63/27 51/62/27
f 52/63/28 54/65/28 53/64/28
f 54/65/29 56/67/29 55/66/29
f 56/67/30 58/169/30 57/68/30
f 58/69/31 60/72/31 59/70/31
f 60/72/32 62/74/32 61/73/32
f 62/74/33 64/76/33 63/75/33
f 64/76/34 66/78/34 65/77/34
f 66/78/35 68/80/35 67/79/35
f 68/80/36 70/85/36 69/81/36
f 14/170/37 12/171/37 40/172/37
f 12/171/37 10/173/37 42/174/37
f 10/173/37 72/175/37 44/176/37
f 72/175/37 70/177/37 46/178/37
f 70/177/37 68/179/37 46/178/37
f 68/179/37 66/180/37 48/181/37
f 46/178/37 68/179/37 48/181/37
f 66/180/37 64/182/37 50/183/37
f 64/182/37 62/184/37 52/185/37
f 50/183/37 64/182/37 52/185/37
f 62/184/37 60/186/37 54/187/37
f 60/186/37 58/188/37 56/189/37
f 54/187/37 60/186/37 56/189/37
f 54/187/37 52/185/37 62/184/37
f 50/183/37 48/181/37 66/180/37
f 46/178/37 44/176/37 72/175/37
f 44/176/37 42/174/37 10/173/37
f 42/174/37 40/172/37 12/171/37
f 40/172/37 38/190/37 14/170/37
f 38/190/37 36/191/37 14/170/37
f 36/191/37 34/84/37 16/83/37
f 14/170/37 36/191/37 16/83/37
f 34/84/37 32/192/37 18/82/37
f 32/192/37 30/193/37 20/194/37
f 18/82/37 32/192/37 20/194/37
f 30/193/37 28/195/37 24/196/37
f 28/195/37 26/197/37 24/196/37
f 24/196/37 22/198/37 30/193/37
f 22/198/37 20/194/37 30/193/37
f 70/85/38 72/87/38 71/86/38
f 72/87/39 10/19/39 9/21/39
f 71/199/40 9/200/40 41/201/40
f 9/200/40 11/202/40 39/203/40
f 11/202/40 13/204/40 39/203/40
f 13/204/40 15/205/40 37/206/40
f 39/203/40 13/204/40 37/206/40
f 15/205/40 17/207/40 33/208/40
f 17/207/40 19/209/40 31/210/40
f 19/209/40 21/211/40 31/210/40
f 21/211/40 23/212/40 29/213/40
f 31/210/40 21/211/40 29/213/40
f 23/212/40 25/214/40 27/215/40
f 27/215/40 29/213/40 23/212/40
f 31/210/40 33/208/40 17/207/40
f 33/208/40 35/216/40 15/205/40
f 35/216/40 37/206/40 15/205/40
f 39/203/40 41/201/40 9/200/40
f 41/201/40 43/217/40 71/199/40
f 43/217/40 45/218/40 71/199/40
f 45/218/40 47/90/40 69/89/40
f 71/199/40 45/218/40 69/89/40
f 47/90/40 49/219/40 65/220/40
f 49/219/40 51/221/40 63/222/40
f 51/221/40 53/223/40 63/222/40
f 53/223/40 55/224/40 61/225/40
f 63/222/40 53/223/40 61/225/40
f 55/224/40 57/226/40 59/227/40
f 59/227/40 61/225/40 55/224/40
f 63/222/40 65/220/40 49/219/40
f 65/220/40 67/88/40 47/90/40
f 74/91/7 76/94/7 75/92/7
f 76/94/8 78/96/8 77/95/8
f 78/96/9 80/98/9 79/97/9
f 80/98/10 82/100/10 81/99/10
f 82/100/11 84/102/11 83/101/11
f 84/102/12 86/104/12 85/103/12
f 86/104/13 88/106/13 87/105/13
f 88/106/14 90/108/14 89/107/14
f 90/108/15 92/110/15 91/109/15
f 92/110/16 94/112/16 93/111/16
f 94/112/17 96/114/17 95/113/17
f 96/114/18 98/116/18 97/115/18
f 98/116/19 100/118/19 99/117/19
f 100/118/20 102/120/20 101/119/20
f 102/120/21 104/122/21 103/121/21
f 104/122/22 106/124/22 105/123/22
f 106/124/23 108/126/23 107/125/23
f 108/126/24 110/128/24 109/127/24
f 110/128/25 112/130/25 111/129/25
f 112/130/26 114/132/26 113/131/26
f 114/132/27 116/134/27 115/133/27
f 116/134/28 118/136/28 117/135/28
f 118/136/29 120/138/29 119/137/29
f 120/138/30 122/228/30 121/139/30
f 122/140/31 124/143/31 123/141/31
f 124/143/32 126/145/32 125/144/32
f 126/145/33 128/147/33 127/146/33
f 128/147/34 130/149/34 129/148/34
f 130/149/35 132/151/35 131/150/35
f 132/151/36 134/156/36 133/152/36
f 78/229/37 76/230/37 104/231/37
f 76/230/37 74/232/37 106/233/37
f 74/232/37 136/234/37 108/235/37
f 136/234/37 134/236/37 110/237/37
f 134/236/37 132/238/37 110/237/37
f 132/238/37 130/239/37 112/240/37
f 110/237/37 132/238/37 112/240/37
f 130/239/37 128/241/37 114/242/37
f 128/241/37 126/243/37 116/244/37
f 114/242/37 128/241/37 116/244/37
f 126/243/37 124/245/37 118/246/37
f 124/245/37 122/247/37 120/248/37
f 118/246/37 124/245/37 120/248/37
f 118/246/37 116/244/37 126/243/37
f 114/242/37 112/240/37 130/239/37
f 110/237/37 108/235/37 136/234/37
f 108/235/37 106/233/37 74/232/37
f 106/233/37 104/231/37 76/230/37
f 104/231/37 102/249/37 78/229/37
f 102/249/37 100/250/37 78/229/37
f 100/250/37 98/155/37 80/154/37
f 78/229/37 100/250/37 80/154/37
f 98/155/37 96/251/37 82/153/37
f 96/251/37 94/252/37 84/253/37
f 82/153/37 96/251/37 84/253/37
f 94/252/37 92/254/37 88/255/37
f 92/254/37 90/256/37 88/255/37
f 88/255/37 86/257/37 94/252/37
f 86/257/37 84/253/37 94/252/37
f 134/156/38 136/158/38 135/157/38
f 136/158/39 74/91/39 73/93/39
f 135/258/40 73/259/40 105/260/40
f 73/259/40 75/261/40 103/262/40
f 75/261/40 77/263/40 103/262/40
f 77/263/40 79/264/40 101/265/40
f 103/262/40 77/263/40 101/265/40
f 79/264/40 81/266/40 97/267/40
f 81/266/40 83/268/40 95/269/40
f 83/268/40 85/270/40 95/269/40
f 85/270/40 87/271/40 93/272/40
f 95/269/40 85/270/40 93/272/40
f 87/271/40 89/273/40 91/274/40
f 91/274/40 93/272/40 87/271/40
f 95/269/40 97/267/40 81/266/40
f 97/267/40 99/275/40 79/264/40
f 99/275/40 101/265/40 79/264/40
f 103/262/40 105/260/40 73/259/40
f 105/260/40 107/276/40 135/258/40
f 107/276/40 109/277/40 135/258/40
f 109/277/40 111/161/40 133/160/40
f 135/258/40 109/277/40 133/160/40
f 111/161/40 113/278/40 129/279/40
f 113/278/40 115/280/40 127/281/40
f 115/280/40 117/282/40 127/281/40
f 117/282/40 119/283/40 125/284/40
f 127/281/40 117/282/40 125/284/40
f 119/283/40 121/285/40 123/286/40
f 123/286/40 125/284/40 119/283/40
f 127/281/40 129/279/40 113/278/40
f 129/279/40 131/159/40 111/161/40
